HIERARCHY
ROOT hip
{
	OFFSET 0.000000 0.000000 0.000000 
	CHANNELS 6 Xposition Yposition Zposition Xrotation Zrotation Yrotation
	JOINT abdomen
	{
		OFFSET 0.000000 3.402643 0.000000 
		CHANNELS 3 Xrotation Zrotation Yrotation
		JOINT chest
		{
			OFFSET 0.000000 8.438565 -0.680529 
			CHANNELS 3 Xrotation Zrotation Yrotation
			JOINT neck
			{
				OFFSET 0.000000 10.207942 -0.272212 
				CHANNELS 3 Xrotation Zrotation Yrotation
				JOINT head
				{
					OFFSET 0.000000 3.130431 0.000000 
					CHANNELS 3 Xrotation Zrotation Yrotation
					End Site
					{
						OFFSET 0.000000 3.130435 0.000000 
					}
				}
			}
			JOINT lCollar
			{
				OFFSET 3.470700 6.669187 -0.816635 
				CHANNELS 3 Yrotation Zrotation Xrotation
				JOINT lShldr
				{
					OFFSET 3.198488 0.000000 0.000000 
					CHANNELS 3 Zrotation Yrotation Xrotation
					JOINT lForeArm
					{
						OFFSET 10.139888 0.000000 0.000000 
						CHANNELS 3 Yrotation Zrotation Xrotation
						JOINT lHand
						{
							OFFSET 8.370511 0.000000 0.000000 
							CHANNELS 3 Zrotation Yrotation Xrotation
							End Site
							{
								OFFSET 4.083176 0.000000 0.000000 
							}
						}
					}
				}
			}
			JOINT rCollar
			{
				OFFSET -3.470700 6.669187 -0.816635 
				CHANNELS 3 Yrotation Zrotation Xrotation
				JOINT rShldr
				{
					OFFSET -3.198488 0.000000 0.000000 
					CHANNELS 3 Zrotation Yrotation Xrotation
					JOINT rForeArm
					{
						OFFSET -10.139888 0.000000 0.000000 
						CHANNELS 3 Yrotation Zrotation Xrotation
						JOINT rHand
						{
							OFFSET -8.370511 0.000000 0.000000 
							CHANNELS 3 Zrotation Yrotation Xrotation
							End Site
							{
								OFFSET -4.083176 0.000000 0.000000 
							}
						}
					}
				}
			}
		}
	}
	JOINT lThigh
	{
		OFFSET 5.308129 -1.633274 1.361059 
		CHANNELS 3 Xrotation Zrotation Yrotation
		JOINT lShin
		{
			OFFSET -2.041588 -20.007561 0.000000 
			CHANNELS 3 Xrotation Zrotation Yrotation
			JOINT lFoot
			{
				OFFSET 0.000000 -19.190928 -1.224953 
				CHANNELS 3 Xrotation Yrotation Zrotation
				End Site
				{
					OFFSET 0.000000 -2.449906 4.627600 
				}
			}
		}
	}
	JOINT rThigh
	{
		OFFSET -5.308129 -1.633274 1.361059 
		CHANNELS 3 Xrotation Zrotation Yrotation
		JOINT rShin
		{
			OFFSET 2.041588 -20.007561 0.000000 
			CHANNELS 3 Xrotation Zrotation Yrotation
			JOINT rFoot
			{
				OFFSET 0.000000 -19.190928 -1.224953 
				CHANNELS 3 Xrotation Yrotation Zrotation
				End Site
				{
					OFFSET 0.000000 -2.449906 4.627600 
				}
			}
		}
	}
}
MOTION
Frames: 13
Frame Time: 0.033333
-1.185067 37.485847 13.179780 29.775391 -7.070312 -2.646484 -0.566406 2.353516 0.430086 -5.693360 2.382812 -4.082031 -0.302734 0.371094 -0.371093 0.058594 -0.048828 1.035148 -18.623047 2.900391 5.078125 -31.914063 -37.877178 0.365130 -47.099609 -9.609375 7.872724 -17.548828 -25.937498 7.236329 -18.769531 -7.685547 -3.836585 29.853518 -39.716797 -10.289441 42.060547 32.607422 -6.567762 9.951173 15.800782 2.805395 -30.171520 14.861599 -5.403204 85.467140 -6.502975 -9.864520 11.933217 7.136456 -4.294923 -76.176094 0.068367 -7.366404 66.483932 3.388466 5.088040 -32.870186 -4.838831 -6.680949 
-1.472173 36.324696 13.744526 28.642580 -7.460938 -2.804003 -2.236328 3.603516 1.318359 -5.419922 1.679688 -2.880859 -0.253906 0.244141 -0.068359 -0.097656 -0.097656 0.351563 -10.205079 1.835938 2.851562 -37.783207 -30.234375 12.197265 -52.333981 -6.796875 6.905452 -13.037110 -24.550781 3.964844 -21.396482 -7.265625 -5.858140 27.373047 -28.466797 -8.803481 43.896484 37.207031 -9.625044 8.759766 15.351563 2.070313 -52.210983 16.805586 -10.915801 96.243866 -5.021154 -10.094599 7.105707 1.992435 -5.057304 -68.073837 1.220150 -7.918597 76.874275 3.039061 5.718531 -34.408871 -10.716077 -8.716022 
-1.649042 37.874290 13.663913 27.343752 -7.177734 -2.784423 -5.458984 4.628906 1.348444 -2.978516 0.898438 -1.582031 -1.054688 0.371094 -0.263672 -0.859375 -0.244140 0.117187 -2.441406 1.132813 0.664063 -33.007813 -21.611326 14.215156 -58.359375 -4.873047 6.103515 -8.486329 -23.574219 1.484375 -20.156250 -2.705078 -8.154297 32.392578 -17.734377 -12.825240 48.720703 38.164066 -14.101562 6.816407 13.876953 1.125391 -65.467789 17.362886 -14.187072 99.062065 -5.158133 -10.582397 0.180858 0.035136 -5.435043 -54.432674 1.806597 -6.277760 76.710281 3.625152 6.156262 -33.502846 -14.143940 -12.652270 
-1.747417 40.057777 13.358943 26.035156 -6.718750 -2.706221 -8.378906 4.960937 1.259766 -0.898438 0.068359 -0.195313 -1.552734 0.449219 -0.175781 -1.572258 -0.410154 0.087821 5.820313 0.234375 -0.957031 -27.646482 -11.943359 16.443291 -62.558590 -2.314453 5.762113 -4.238281 -22.080078 -1.289063 -15.615234 0.810547 -9.355470 39.472652 -4.765625 -17.617188 54.453125 38.769531 -18.824474 5.478516 13.222656 0.002235 -76.375771 17.363173 -15.881449 99.238312 -5.512999 -11.185158 -6.133069 -0.514393 -4.917426 -39.716427 2.109039 -4.389205 68.220062 4.134392 5.601711 -25.346487 -16.371208 -13.505948 
-1.624876 42.960846 12.818504 25.136721 -5.830078 -2.608414 -10.986328 3.271484 1.182198 -0.146484 -0.625000 0.937500 -1.191406 0.195313 0.019565 -1.835937 -0.253906 0.039019 14.052734 -0.820313 -1.210938 -24.248045 -2.646484 19.823769 -62.109375 0.693359 6.064453 -1.542969 -20.341797 -2.265625 -5.498046 1.601563 -8.154532 45.947266 8.535156 -23.016125 59.121094 39.501953 -23.515625 4.746094 12.988281 -0.117187 -81.679047 16.484417 -15.491088 97.888168 -6.399785 -10.028048 -17.917488 -0.385411 -2.330618 -25.207806 0.087782 -2.689764 52.679188 4.614781 4.441822 -8.065106 -15.436653 -0.902653 
-1.320704 45.775517 12.222327 24.677734 -4.638672 -2.344539 -12.705078 0.634766 0.947266 -0.195313 -1.269531 2.011719 -0.585938 -0.126953 0.078103 -1.787109 0.117188 -0.087891 20.703125 -1.679688 -0.849609 -22.744141 7.285594 22.531565 -59.277340 3.496094 6.395889 0.966797 -18.261719 -2.236328 6.093750 1.132813 -5.849610 49.716797 20.175783 -27.001951 61.455078 39.960941 -26.347654 5.126953 13.984375 -0.361328 -84.794556 15.771465 -13.366029 95.637741 -7.435664 -9.469064 -26.877703 -0.224271 1.352093 -14.918050 -1.962947 -1.647966 35.151516 4.896006 2.805073 11.988996 -8.974760 4.475964 
-0.933895 46.893711 11.876171 25.097656 -3.437500 -1.924414 -12.158202 -1.298828 0.624779 -0.986328 -1.601563 2.968750 -0.410156 -0.175781 -0.068359 -1.474609 0.820313 -0.536970 22.695313 -1.972656 -0.800781 -24.394531 15.742189 20.266323 -54.326172 4.658204 5.234375 0.898438 -17.392578 -2.580918 12.598122 0.712917 -4.326131 48.447262 29.394531 -30.800779 60.644531 41.347656 -26.900984 6.503906 15.283204 0.285779 -84.872673 12.441371 -10.250819 82.530212 -7.215629 -7.775620 -23.864544 0.902291 2.259548 -5.941965 -1.805267 -1.668898 20.806574 3.196489 1.100896 22.527924 -2.637720 2.267938 
-0.646828 47.242702 11.626980 25.761719 -2.187500 -1.425791 -10.351563 -3.242188 0.273438 -2.187500 -1.718750 4.042676 -0.537109 -0.253907 -0.410199 -1.064453 1.699219 -1.416016 22.128908 -1.845703 -0.771170 -28.105469 23.515625 16.214834 -47.958984 5.419922 3.125000 0.283203 -17.060547 -3.496094 16.992189 0.058594 -3.046885 41.972656 36.562500 -34.251999 55.996094 43.046875 -25.458984 8.476563 17.031250 1.086845 -81.913445 9.453082 -7.731582 64.997063 -6.470471 -5.659650 -19.245398 1.712942 2.020251 -10.221354 -3.427008 -1.697337 44.158474 2.760901 2.816629 11.925105 -0.742319 1.833277 
-0.337764 47.115269 11.444757 26.572266 -0.878906 -0.898438 -8.027344 -5.068479 -0.098500 -3.505859 -1.816406 5.136719 -0.664063 -0.205078 -0.849610 -0.791014 2.714838 -3.056185 20.351563 -1.142578 -0.829883 -32.539063 31.103518 11.118328 -41.396484 5.869141 0.820313 -1.083984 -17.031250 -3.459890 20.458984 -0.644531 -1.689343 33.759766 41.865234 -36.477856 50.175781 44.042969 -22.243116 10.332031 19.453127 1.985676 -77.681946 6.972141 -5.232207 44.145729 -5.542555 -3.426867 -14.676530 1.620654 1.414533 -7.632539 -4.548315 -1.254044 57.032246 1.953157 3.187125 2.383617 1.119796 1.859199 
-0.066450 46.584496 11.376229 27.431641 0.166016 -0.410128 -5.712890 -6.181641 -0.460036 -4.599609 -1.914063 5.664063 -0.673828 0.009766 -0.878906 -0.595703 3.398444 -4.110742 18.935547 -0.380839 -0.927725 -36.708981 37.207031 5.992234 -36.767578 4.794922 -1.797691 -2.587890 -17.021484 -3.342701 23.447266 -1.269531 -0.341580 27.773438 45.683594 -36.135590 46.660149 42.138676 -19.687502 12.392578 21.328127 2.943007 -73.991989 5.234094 -3.636061 28.236485 -4.941887 -1.237820 -9.104956 -0.444417 1.362117 -2.566920 -5.104116 -1.480766 62.124485 1.660264 3.373477 -3.133334 3.068045 2.146900 
0.224954 44.407455 11.561250 29.589844 1.123047 -0.195121 -2.597656 -4.765625 -0.479327 -5.634765 -2.304688 5.526951 -0.439453 0.273438 -0.449172 -0.566406 3.642584 -4.227888 16.376955 1.386719 -1.113518 -42.753906 43.994137 -6.347655 -38.320316 -4.091797 -5.312500 -6.201172 -18.183594 -1.425781 25.732422 -2.177734 1.875000 28.642578 48.144531 -24.980465 47.734379 33.740238 -15.034721 14.531250 25.097656 3.750000 -68.156731 4.179326 -2.384139 15.180643 -4.364435 -0.827404 -2.302320 -1.558105 0.288735 -0.683503 -6.878182 -1.897874 64.058075 2.255861 3.857191 -2.221719 7.393459 1.868103 
0.557394 40.890892 12.182584 31.464844 1.728516 -0.478221 -0.312500 -1.396484 -0.439453 -6.152343 -2.470703 4.569987 -0.039063 0.537110 0.146485 -0.585938 3.193365 -3.339294 14.775392 3.808594 -2.227211 -44.667965 44.912109 -17.170837 -44.423828 -18.906250 -8.512461 -10.068359 -19.013672 1.328125 23.642576 -2.880859 3.544922 35.439453 44.541016 -5.207994 53.388672 18.076172 -9.631935 15.888671 28.320313 4.375000 -74.492851 4.169674 -2.248040 38.456009 -6.544994 -5.061226 -20.175480 0.640995 2.029256 -10.794360 -9.242553 -0.676979 71.278008 2.177807 4.055959 -0.083505 9.459423 4.176010 
1.334227 36.875404 13.333732 30.585939 3.212891 -1.288515 -0.361328 -0.878906 -0.966797 -6.552734 -1.601562 3.251680 -0.039063 0.429688 0.234375 -0.244140 2.695311 -1.396026 19.716797 6.972656 -5.977748 -30.292969 34.511719 -9.701497 -39.892582 -30.839844 -7.773438 -10.488281 -17.001953 2.089844 17.363281 -2.568359 3.750437 37.021488 37.744141 6.763791 59.287109 3.564453 -4.814453 12.373047 28.310547 2.890625 -78.223869 2.235844 1.413233 70.489708 -8.727010 -9.800792 -35.669205 6.622981 6.667612 -35.558022 -13.015128 3.648549 89.486961 -1.445184 3.693238 -1.190629 3.528896 12.100535 
